<svg width="1344" height="259" viewBox="0 0 1344 259" fill="none" xmlns="http://www.w3.org/2000/svg">
<path d="M162.809 1.09872C162.809 1.09872 169.888 2.53768 172.269 6.05806C180.277 17.8954 188.525 29.5728 196.69 41.3026C197.406 42.3316 198.301 43.2473 198.903 44.3346C199.289 45.0293 199.676 46.1834 199.359 46.6892C198.981 47.2939 197.85 47.7183 197.045 47.7241C186.048 47.7852 175.051 47.7881 164.053 47.7474C147.507 47.6834 130.96 47.5555 114.416 47.4858C104.777 47.4451 95.1314 47.6049 85.4946 47.3869C81.9539 47.3055 78.451 47.1689 75.0382 48.0875C67.0701 50.23 60.9944 54.7969 57.0642 62.1923C55.2793 65.5499 54.3519 69.0557 54.2124 72.7941C53.7938 83.9221 58.5148 92.2478 68.0294 97.9339C72.6457 100.693 77.6835 101.48 82.9917 101.486C103.384 101.51 123.774 101.649 144.164 101.742C147.361 101.757 150.559 101.73 153.757 101.742C176.132 101.85 198.507 101.966 220.883 102.071C225.176 102.091 229.473 102.065 233.766 102.085C249.798 102.158 265.831 102.239 281.863 102.312C284.77 102.326 287.677 102.268 290.584 102.326C298.209 102.478 305.715 103.37 313.032 105.684C322.145 108.565 330.322 113.143 337.686 119.161C344.892 125.048 350.619 132.175 355.227 140.286C358.023 145.21 360.32 150.309 361.959 155.696C363.541 160.894 364.579 166.214 364.997 171.647C365.465 177.673 365.369 183.653 364.497 189.667C363.532 196.321 361.715 202.688 359.224 208.888C356.971 214.502 353.828 219.633 350.256 224.484C348.346 227.08 346.389 229.694 344.116 231.964C337.317 238.755 329.689 244.409 320.866 248.403C315.13 250.999 309.122 252.566 302.997 253.802C302.436 253.915 301.84 253.877 301.258 253.88C202.743 253.904 4.81951 252.726 4.81951 252.726C2.81949 252.802 1.52006 251.973 0.961914 250.031V203.519C1.5375 201.961 2.6567 201.397 4.30497 201.406C15.7208 201.449 27.1395 201.406 38.5553 201.452C43.9623 201.473 49.3693 201.638 54.7764 201.705C57.2938 201.737 59.8142 201.676 62.3317 201.688C84.2592 201.79 106.187 201.909 128.111 201.996C137.704 202.034 147.298 201.999 156.888 202.005C170.196 202.01 183.507 202.005 196.815 202.045C201.022 202.057 205.228 202.272 209.432 202.281C224.984 202.316 240.534 202.287 256.086 202.324C262.04 202.339 267.99 202.508 273.944 202.548C280.514 202.595 287.084 202.595 293.656 202.566C295.197 202.56 296.773 202.54 298.273 202.226C305.308 200.752 311.436 197.696 315.91 191.833C320.933 185.252 322.537 177.871 320.616 169.888C319.189 163.949 315.811 159.106 310.936 155.368C306.918 152.289 302.404 150.28 297.363 149.865C293.136 149.516 288.874 149.536 284.627 149.522C213.004 149.266 138.321 155.89 66.9945 148.257C60.3055 147.542 53.8054 145.856 47.5059 143.399C39.2791 140.193 31.9535 135.551 25.4679 129.638C18.6801 123.449 12.9504 116.353 9.05501 107.975C6.99685 103.544 5.10439 98.9833 3.70903 94.3118C2.46483 90.1548 1.58692 85.8379 1.67704 81.396C1.79622 75.5558 1.33982 69.6691 1.91832 63.8813C2.51135 57.9306 4.25846 52.0992 6.59278 46.5701C10.1626 38.1223 15.0492 30.4536 21.4301 23.8169C25.4883 19.5931 29.9447 15.8489 34.8866 12.657C51.9158 -3.87545 120.5 0.197247 162.809 1.09872Z" fill="#FBFDFA"/>
<path d="M1337.02 258.179C1336.56 258.103 1336.1 257.964 1335.64 257.961C1331.23 257.944 1326.82 257.949 1322.41 257.949C1318.37 257.949 1314.32 257.949 1310.27 257.949C1307.72 257.949 1305.18 257.949 1302.64 257.949C1299.66 257.949 1296.67 257.973 1293.69 257.938C1292.59 257.923 1291.49 257.708 1290.39 257.699C1289.09 257.688 1287.79 257.856 1286.49 257.845C1284.71 257.833 1282.93 257.682 1281.16 257.667C1277.16 257.638 1273.16 257.656 1269.16 257.656C1261.72 257.656 1254.28 257.656 1246.84 257.656C1244.83 257.656 1242.82 257.659 1240.8 257.659C1237.73 257.659 1234.65 257.688 1231.57 257.647C1230.18 257.63 1228.79 257.417 1227.39 257.397C1226.14 257.38 1224.89 257.505 1223.64 257.566C1223.02 257.598 1222.39 257.647 1221.76 257.65C1218.93 257.659 1216.09 257.592 1213.25 257.673C1211 257.737 1209.4 256.781 1208.17 254.967C1201.9 245.72 1195.62 236.481 1189.34 227.24C1188.35 225.772 1187.25 224.362 1186.34 222.839C1185.16 220.844 1185.88 219.568 1188.2 219.487C1189.45 219.443 1190.7 219.658 1191.95 219.664C1193.21 219.667 1194.46 219.49 1195.71 219.507C1197.79 219.536 1199.86 219.731 1201.94 219.734C1222.67 219.769 1243.4 219.751 1264.13 219.801C1286.3 219.853 1308.48 219.955 1330.65 220.057C1332.43 220.065 1334.21 220.246 1336 220.304C1336.71 220.327 1337.45 220.304 1338.16 220.182C1340.9 219.702 1343.18 220.237 1343.24 223.658C1343.24 223.734 1343.35 223.807 1343.41 223.879V226.205C1343.33 227.539 1343.19 228.871 1343.19 230.205C1343.17 237.746 1343.19 245.289 1343.17 252.83C1343.17 254.557 1342.84 256.272 1341.28 257.278C1340.48 257.792 1339.42 257.894 1338.47 258.185H1337.02L1337.02 258.179Z" fill="#FBFDFA"/>
<path d="M767.305 24.1359C767.305 29.6592 767.27 35.1825 767.317 40.7058C767.349 44.5343 765.785 44.9878 763.014 45.1012C760.561 45.203 758.093 44.9617 755.631 44.9559C733.203 44.9064 710.776 44.8861 688.348 44.8309C683.851 44.8192 679.351 44.6506 674.854 44.6216C671.531 44.6012 668.205 44.7291 664.883 44.7204C647.787 44.6797 630.688 44.6303 613.592 44.5489C611.222 44.5372 609.065 46.3687 609.092 48.953C609.144 54.0722 608.914 59.1915 608.894 64.3136C608.876 68.6567 609.036 72.9997 609.028 77.3428C609.001 90.0813 608.923 102.817 608.873 115.555C608.853 120.689 608.885 125.823 608.839 130.957C608.804 134.957 608.661 138.954 608.618 142.954C608.603 144.303 608.737 145.654 608.807 147.003C608.812 147.099 608.824 147.195 608.824 147.294C608.824 148.495 608.99 150.024 607.772 150.451C607.222 150.643 605.92 149.471 605.339 148.649C600.251 141.457 595.26 134.195 590.216 126.971C583.164 116.869 576.085 106.785 569.033 96.6831C567.798 94.9127 566.443 93.183 565.492 91.2615C564.792 89.8487 564.396 88.1627 564.338 86.5783C564.222 83.5434 564.501 80.494 564.504 77.4503C564.507 74.2236 564.347 70.9968 564.324 67.77C564.312 66.1799 564.452 64.5868 564.524 62.9967C564.539 62.6595 564.559 62.3194 564.559 61.9822C564.562 58.0228 564.585 54.0635 564.545 50.1013C564.536 49.1478 564.411 48.1739 564.181 47.2466C563.722 45.3832 562.117 44.2931 559.928 44.2872C551.838 44.2727 543.748 44.2872 535.655 44.2553C532.995 44.2465 530.335 44.0838 527.675 44.075C515.768 44.0314 503.861 44.0111 491.954 43.9936C480.181 43.9791 468.407 44.0111 456.637 43.9675C440.421 43.9064 424.209 43.7931 407.994 43.7029C405.488 43.6884 404.378 42.5983 404.383 40.0953C404.409 31.0371 404.441 21.9789 404.491 12.9207C404.503 10.6009 404.613 8.28111 404.642 5.96132C404.674 3.2985 405.598 2.34501 408.322 2.31012C410.628 2.28105 412.936 2.3014 415.241 2.30431C428.613 2.30431 441.982 2.30431 455.355 2.30721C459.262 2.30721 463.169 2.28687 467.076 2.33628C470.593 2.37989 474.108 2.57757 477.625 2.58338C496.939 2.60954 516.256 2.59791 535.573 2.60082C538.951 2.60082 542.326 2.59791 545.704 2.61245C567.234 2.70547 588.763 2.80431 610.292 2.89443C615.033 2.91478 619.775 2.87989 624.516 2.9235C626.882 2.94676 629.249 3.16187 631.615 3.16769C650.447 3.19676 669.275 3.19385 688.107 3.19966C690.996 3.19966 693.886 3.19094 696.775 3.19966C718.758 3.2956 740.744 3.39153 762.727 3.50199C763.538 3.5049 764.363 3.62118 765.157 3.79851C766.506 4.10084 767.288 5.23747 767.291 6.84214C767.302 12.6067 767.294 18.3713 767.296 24.1388L767.305 24.1359Z" fill="#FBFDFA"/>
<path d="M1099.84 21.9214C1099.84 24.3401 1099.85 26.7616 1099.84 29.1802C1099.75 48.6455 1099.66 68.1137 1099.57 87.579C1099.56 91.2884 1099.6 95.0006 1099.55 98.7099C1099.5 102.663 1099.31 106.617 1099.3 110.573C1099.27 129.597 1099.29 148.62 1099.28 167.647C1099.28 171.12 1099.28 174.594 1099.26 178.068C1099.18 190.4 1099.08 202.734 1098.99 215.066C1098.97 218.191 1099.85 219.092 1103 219.188C1106.68 219.298 1110.35 219.435 1114.03 219.444C1130.19 219.47 1146.36 219.557 1162.52 219.377C1166.08 219.336 1168.31 220.737 1170.19 223.464C1175.77 231.54 1181.42 239.569 1187.05 247.618C1188.53 249.749 1190.01 251.883 1191.49 254.022C1191.7 254.336 1191.88 254.682 1192.04 255.031C1192.54 256.162 1192.29 256.857 1191.08 257.04C1189.46 257.278 1187.82 257.38 1186.19 257.389C1180.77 257.421 1175.35 257.383 1169.93 257.374C1166.03 257.368 1162.13 257.374 1158.23 257.374C1155.63 257.374 1153.04 257.374 1150.44 257.374C1147.46 257.374 1144.48 257.4 1141.5 257.36C1140.35 257.345 1139.2 257.107 1138.05 257.095C1134.34 257.06 1130.63 257.081 1126.92 257.081C1116.33 257.081 1105.75 257.081 1095.16 257.081C1093 257.081 1090.84 257.081 1088.67 257.081C1085.55 257.081 1082.42 257.107 1079.3 257.069C1078.09 257.054 1076.9 256.842 1075.7 256.822C1074.59 256.801 1073.49 256.915 1072.38 256.973C1071.85 257.002 1071.32 257.072 1070.79 257.072C1067.52 257.078 1064.25 257.136 1060.98 257.049C1057.58 256.961 1056.69 255.706 1056.71 252.804C1056.85 229.316 1056.94 205.83 1057.04 182.341C1057.14 160.402 1057.23 138.466 1057.32 116.527C1057.43 87.5703 1057.51 58.6107 1057.63 29.6541C1057.66 22.3953 1057.79 15.1394 1057.89 7.88063C1057.91 5.87189 1059 4.76432 1061.7 4.69746C1065.71 4.59571 1069.72 4.837 1073.73 4.87188C1075.95 4.89223 1078.17 4.76141 1080.4 4.75269C1081.6 4.74688 1082.8 4.90095 1084 4.90676C1088.16 4.92711 1092.31 4.91258 1096.46 4.91548C1098.78 4.91548 1099.84 5.92131 1099.86 8.25854C1099.89 12.8109 1099.87 17.3662 1099.87 21.9185C1099.86 21.9185 1099.85 21.9185 1099.84 21.9185V21.9214Z" fill="#FBFDFA"/>
<path d="M1025.46 256.788C1022.42 256.788 1019.39 256.788 1016.35 256.788C1013.8 256.788 1011.25 256.817 1008.7 256.774C1007.4 256.753 1006.11 256.538 1004.81 256.524C1003.47 256.509 1002.12 256.628 1000.77 256.692C1000.29 256.715 999.806 256.776 999.326 256.776C996.056 256.785 992.782 256.739 989.512 256.794C986.119 256.849 983.718 255.585 981.736 252.625C975.651 243.544 969.273 234.663 963.02 225.695C958.506 219.221 954.009 212.732 949.497 206.256C939.398 191.753 929.296 177.25 919.189 162.747C911.819 152.171 904.433 141.604 897.066 131.028C887.959 117.953 878.88 104.859 869.752 91.7982C860.65 78.7748 851.511 65.7776 842.371 52.7804C839.493 48.6874 836.566 44.6292 833.667 40.5507C832.127 38.385 831.987 36.9896 833.755 34.6C840.133 25.9691 846.359 17.2249 852.644 8.52422C852.729 8.40794 852.778 8.2655 852.862 8.14922C854.502 5.95734 855.781 5.84397 857.409 8.02131C859.801 11.2248 862.014 14.5592 864.333 17.815C872.514 29.2948 880.729 40.7513 888.889 52.2455C896.441 62.8823 903.927 73.5684 911.468 84.2139C918.061 93.5221 924.697 102.801 931.296 112.107C937.003 120.153 942.689 128.214 948.381 136.272C955.686 146.616 962.971 156.97 970.299 167.299C979.913 180.848 989.573 194.363 999.181 207.913C1005.36 216.628 1011.48 225.39 1017.64 234.119C1022.19 240.57 1026.76 247.003 1031.33 253.445C1032.7 255.381 1032.31 256.25 1029.95 256.497C1028.46 256.651 1026.97 256.768 1025.48 256.901C1025.48 256.864 1025.48 256.823 1025.47 256.785L1025.46 256.788Z" fill="#FBFDFA"/>
<path d="M720.578 255.624C717.84 255.624 715.439 255.624 713.038 255.624C709.959 255.624 706.883 255.624 703.805 255.624C700.776 255.624 697.747 255.656 694.718 255.612C693.276 255.592 691.837 255.357 690.395 255.345C686.593 255.322 682.79 255.409 678.988 255.351C678.194 255.339 676.95 255.08 676.729 254.578C676.444 253.932 676.75 252.758 677.212 252.101C681.351 246.243 685.587 240.452 689.782 234.633C696.197 225.728 702.596 216.813 709.011 207.909C714.756 199.938 720.517 191.978 726.259 184.007C732.224 175.725 738.172 167.429 744.134 159.144C750.829 149.844 757.529 140.55 764.23 131.257C772.338 120.009 780.451 108.771 788.547 97.518C791.78 93.0238 794.948 88.4831 798.187 83.9946C804.777 74.8579 811.399 65.7445 818.001 56.6165C818.931 55.3316 819.786 53.9856 820.757 52.7327C822.44 50.567 823.87 50.6368 825.428 52.8955C826.85 54.9566 828.245 57.038 829.681 59.0903C834.646 66.1922 839.617 73.294 844.6 80.3841C845.902 82.2359 845.96 83.7475 844.678 85.5528C840.524 91.4017 836.373 97.2564 832.204 103.094C827.117 110.219 821.983 117.315 816.916 124.454C812.46 130.733 808.088 137.074 803.643 143.361C799.14 149.734 794.594 156.071 790.073 162.428C786.509 167.446 782.966 172.481 779.399 177.498C773.986 185.109 768.561 192.711 763.14 200.313C756.628 209.446 750.09 218.56 743.605 227.714C738.32 235.176 733.099 242.682 727.846 250.165C727.154 251.15 726.465 252.139 725.721 253.083C724.331 254.851 722.628 255.996 720.573 255.621L720.578 255.624Z" fill="#FBFDFA"/>
<path d="M337.097 48.2975C329.737 48.2975 322.376 48.3062 315.016 48.2946C310.239 48.2859 305.46 48.2539 300.684 48.2161C295.361 48.1754 290.039 48.0853 284.713 48.0766C271.733 48.0504 258.751 48.0882 245.771 48.0417C237.271 48.0097 228.768 47.8527 220.268 47.8004C218.256 47.7888 217.053 46.5737 216.047 45.1521C212.518 40.1666 209.084 35.1113 205.579 30.1113C199.834 21.9223 194.055 13.7536 188.294 5.5733C188.154 5.37853 188.044 5.16341 187.913 4.96283C186.453 2.74769 187.003 1.58489 189.648 1.38721C190.413 1.32907 191.189 1.43373 191.956 1.43373C202.369 1.43954 212.785 1.43663 223.198 1.43954C229.381 1.43954 235.564 1.425 241.747 1.45407C259.803 1.53547 277.858 1.63722 295.917 1.72733C298.722 1.74187 301.53 1.69536 304.335 1.73896C308.521 1.80292 312.707 1.95989 316.896 1.99478C318.969 2.01222 321.045 1.76803 323.117 1.77675C325.966 1.78838 328.818 1.98896 331.667 1.99768C341.452 2.02966 351.234 2.01513 361.019 2.02094C361.551 2.02094 362.097 1.98896 362.612 2.09362C364.789 2.53548 365.519 3.59654 365.513 6.51807C365.507 8.69251 365.292 10.8699 365.286 13.0443C365.26 23.5066 365.275 33.9689 365.275 44.4312C365.275 47.3091 364.222 48.3644 361.371 48.3644C353.281 48.3644 345.193 48.3644 337.103 48.3644V48.3004L337.097 48.2975Z" fill="#FBFDFA"/>
<path d="M563.716 237.807C563.716 233.941 563.695 230.072 563.727 226.205C563.739 224.807 563.942 223.412 563.937 222.013C563.934 220.327 563.73 218.641 563.736 216.958C563.812 198.621 563.913 180.281 564.003 161.943C564.021 158.132 564 154.324 564.027 150.513C564.102 139.914 564.175 129.312 564.314 118.713C564.323 118.053 564.873 117.402 565.169 116.745C565.78 117.021 566.605 117.135 566.963 117.603C568.681 119.859 570.283 122.204 571.91 124.53C579.573 135.484 587.233 146.44 594.893 157.394C598.948 163.19 602.995 168.993 607.053 174.789C608.079 176.251 608.608 177.839 608.594 179.65C608.556 184.978 608.614 190.304 608.571 195.632C608.53 200.214 608.335 204.792 608.321 209.374C608.283 223.354 608.3 237.33 608.294 251.31C608.294 254.319 606.794 255.581 603.826 255.089C603.449 255.028 603.053 255.043 602.667 255.043C598.329 255.04 593.989 255.043 589.652 255.043C585.509 255.043 581.37 255.043 577.227 255.043C574.346 255.043 571.463 255.069 568.582 255.028C567.628 255.014 566.66 254.895 565.73 254.688C564.39 254.389 563.701 253.348 563.695 251.761C563.684 247.113 563.692 242.461 563.692 237.813H563.716V237.807Z" fill="#FBFDFA"/>
</svg>
