<svg width="104" height="52" viewBox="0 0 104 52" fill="none" xmlns="http://www.w3.org/2000/svg">
<g clip-path="url(#clip0_354_10666)">
<rect width="52" height="52" transform="translate(52)" fill="#808080"/>
<path d="M63.2019 22.2819C63.2019 22.2819 63.4075 22.3237 63.4767 22.426C63.7094 22.7699 63.949 23.1091 64.1862 23.4499C64.207 23.4798 64.233 23.5064 64.2505 23.538C64.2617 23.5582 64.2729 23.5917 64.2637 23.6064C64.2527 23.624 64.2199 23.6363 64.1965 23.6365C63.877 23.6382 63.5575 23.6383 63.238 23.6371C62.7573 23.6353 62.2766 23.6316 61.796 23.6295C61.516 23.6283 61.2358 23.633 60.9558 23.6267C60.8529 23.6243 60.7512 23.6203 60.652 23.647C60.4205 23.7093 60.244 23.8419 60.1298 24.0568C60.078 24.1543 60.0511 24.2562 60.047 24.3648C60.0348 24.6881 60.172 24.9299 60.4484 25.0951C60.5825 25.1753 60.7289 25.1981 60.8831 25.1983C61.4755 25.199 62.0679 25.203 62.6602 25.2057C62.7531 25.2062 62.846 25.2054 62.9389 25.2057C63.5889 25.2089 64.239 25.2123 64.889 25.2153C65.0137 25.2159 65.1386 25.2151 65.2633 25.2157C65.7291 25.2178 66.1948 25.2202 66.6606 25.2223C66.745 25.2227 66.8295 25.221 66.9139 25.2227C67.1354 25.2271 67.3535 25.253 67.5661 25.3203C67.8308 25.404 68.0684 25.537 68.2823 25.7118C68.4917 25.8828 68.658 26.0899 68.7919 26.3255C68.8731 26.4686 68.9398 26.6167 68.9875 26.7732C69.0334 26.9242 69.0636 27.0787 69.0757 27.2366C69.0893 27.4116 69.0865 27.5854 69.0612 27.7601C69.0332 27.9534 68.9804 28.1384 68.908 28.3185C68.8426 28.4816 68.7513 28.6306 68.6475 28.7716C68.592 28.847 68.5352 28.9229 68.4691 28.9889C68.2716 29.1862 68.05 29.3504 67.7937 29.4665C67.627 29.5419 67.4525 29.5874 67.2745 29.6233C67.2582 29.6266 67.2409 29.6255 67.224 29.6256C64.362 29.6263 58.6121 29.592 58.6121 29.592C58.554 29.5942 58.5162 29.5702 58.5 29.5138V28.1625C58.5167 28.1172 58.5492 28.1009 58.5971 28.1011C58.9288 28.1024 59.2605 28.1011 59.5921 28.1025C59.7492 28.1031 59.9063 28.1079 60.0634 28.1098C60.1365 28.1107 60.2097 28.109 60.2829 28.1093C60.9199 28.1123 61.5569 28.1157 62.1939 28.1183C62.4726 28.1194 62.7513 28.1183 63.0299 28.1185C63.4165 28.1187 63.8032 28.1185 64.1898 28.1197C64.312 28.12 64.4342 28.1263 64.5563 28.1265C65.0082 28.1276 65.4599 28.1267 65.9117 28.1278C66.0847 28.1282 66.2576 28.1331 66.4305 28.1343C66.6214 28.1357 66.8122 28.1357 67.0032 28.1348C67.0479 28.1346 67.0937 28.1341 67.1373 28.1249C67.3417 28.0821 67.5197 27.9934 67.6497 27.823C67.7956 27.6318 67.8422 27.4174 67.7864 27.1855C67.7449 27.0129 67.6468 26.8723 67.5052 26.7636C67.3885 26.6742 67.2573 26.6159 67.1109 26.6038C66.9881 26.5936 66.8643 26.5942 66.7409 26.5938C64.6601 26.5864 62.4905 26.7788 60.4183 26.5571C60.224 26.5363 60.0352 26.4873 59.8522 26.416C59.6132 26.3228 59.4003 26.1879 59.2119 26.0162C59.0147 25.8364 58.8483 25.6302 58.7351 25.3868C58.6753 25.2581 58.6203 25.1256 58.5798 24.9899C58.5437 24.8691 58.5182 24.7437 58.5208 24.6147C58.5242 24.445 58.511 24.274 58.5278 24.1058C58.545 23.933 58.5958 23.7636 58.6636 23.6029C58.7673 23.3575 58.9093 23.1347 59.0946 22.9419C59.2125 22.8192 59.342 22.7104 59.4856 22.6177C59.9803 22.1374 61.9727 22.2557 63.2019 22.2819Z" fill="#FBFDFA"/>
<path d="M97.3143 29.7502C97.301 29.748 97.2876 29.744 97.2742 29.7439C97.1462 29.7434 97.0182 29.7435 96.8901 29.7435C96.7724 29.7435 96.6548 29.7435 96.5371 29.7435C96.4632 29.7435 96.3893 29.7435 96.3154 29.7435C96.2289 29.7435 96.1422 29.7442 96.0557 29.7432C96.0236 29.7428 95.9916 29.7365 95.9596 29.7363C95.9219 29.7359 95.8841 29.7408 95.8465 29.7405C95.7948 29.7402 95.7431 29.7358 95.6914 29.7353C95.5752 29.7345 95.459 29.735 95.3429 29.735C95.1268 29.735 94.9107 29.735 94.6946 29.735C94.6361 29.735 94.5777 29.7351 94.5191 29.7351C94.4298 29.7351 94.3404 29.7359 94.251 29.7348C94.2105 29.7342 94.1701 29.7281 94.1296 29.7275C94.0932 29.727 94.0569 29.7306 94.0206 29.7324C94.0024 29.7333 93.9841 29.7348 93.9659 29.7348C93.8835 29.7351 93.8011 29.7331 93.7188 29.7355C93.6532 29.7374 93.6067 29.7096 93.571 29.6569C93.389 29.3882 93.2065 29.1199 93.0242 28.8514C92.9952 28.8087 92.9633 28.7678 92.937 28.7235C92.9025 28.6656 92.9235 28.6285 92.991 28.6261C93.0272 28.6249 93.0637 28.6311 93.1 28.6313C93.1364 28.6314 93.1728 28.6262 93.2091 28.6267C93.2695 28.6276 93.3297 28.6332 93.3901 28.6333C93.9923 28.6343 94.5946 28.6338 95.1968 28.6353C95.841 28.6368 96.4851 28.6397 97.1293 28.6427C97.1811 28.643 97.2329 28.6482 97.2846 28.6499C97.3055 28.6506 97.3268 28.6499 97.3474 28.6463C97.4271 28.6324 97.4933 28.6479 97.4952 28.7473C97.4952 28.7495 97.4984 28.7516 97.5001 28.7538V28.8213C97.4978 28.8601 97.4936 28.8988 97.4936 28.9375C97.493 29.1566 97.4937 29.3757 97.4931 29.5948C97.493 29.645 97.4834 29.6948 97.4381 29.724C97.4148 29.739 97.3839 29.7419 97.3565 29.7504H97.3143L97.3143 29.7502Z" fill="#FBFDFA"/>
<path d="M80.7634 22.9509C80.7634 23.1114 80.7623 23.2718 80.7637 23.4323C80.7646 23.5435 80.7192 23.5567 80.6387 23.56C80.5674 23.563 80.4957 23.5559 80.4242 23.5558C79.7726 23.5543 79.1211 23.5537 78.4695 23.5521C78.3389 23.5518 78.2082 23.5469 78.0775 23.5461C77.981 23.5455 77.8844 23.5492 77.7878 23.5489C77.2912 23.5478 76.7944 23.5463 76.2978 23.544C76.2289 23.5436 76.1663 23.5968 76.167 23.6719C76.1686 23.8206 76.1619 23.9693 76.1613 24.1181C76.1608 24.2443 76.1654 24.3705 76.1652 24.4967C76.1644 24.8667 76.1621 25.2367 76.1607 25.6068C76.1601 25.7559 76.161 25.9051 76.1597 26.0542C76.1587 26.1704 76.1545 26.2865 76.1533 26.4028C76.1528 26.4419 76.1567 26.4812 76.1588 26.5204C76.1589 26.5232 76.1593 26.526 76.1593 26.5288C76.1593 26.5637 76.1641 26.6081 76.1287 26.6206C76.1127 26.6261 76.0749 26.5921 76.058 26.5682C75.9102 26.3593 75.7652 26.1483 75.6187 25.9384C75.4138 25.645 75.2082 25.352 75.0033 25.0585C74.9674 25.0071 74.928 24.9568 74.9004 24.901C74.8801 24.86 74.8686 24.811 74.8669 24.765C74.8635 24.6768 74.8716 24.5882 74.8717 24.4998C74.8718 24.406 74.8671 24.3123 74.8665 24.2186C74.8661 24.1724 74.8702 24.1261 74.8723 24.0799C74.8727 24.0701 74.8733 24.0602 74.8733 24.0504C74.8734 23.9354 74.8741 23.8204 74.8729 23.7053C74.8726 23.6776 74.869 23.6493 74.8623 23.6223C74.849 23.5682 74.8024 23.5365 74.7388 23.5363C74.5037 23.5359 74.2687 23.5363 74.0336 23.5354C73.9563 23.5352 73.879 23.5304 73.8018 23.5302C73.4559 23.5289 73.1099 23.5283 72.764 23.5278C72.422 23.5274 72.08 23.5283 71.738 23.5271C71.2669 23.5253 70.7959 23.522 70.3249 23.5194C70.2521 23.519 70.2198 23.4873 70.22 23.4146C70.2207 23.1514 70.2217 22.8883 70.2231 22.6251C70.2234 22.5577 70.2266 22.4903 70.2275 22.4229C70.2284 22.3456 70.2553 22.3179 70.3344 22.3169C70.4014 22.316 70.4684 22.3166 70.5354 22.3167C70.9239 22.3167 71.3123 22.3167 71.7008 22.3168C71.8143 22.3168 71.9278 22.3162 72.0413 22.3176C72.1435 22.3189 72.2456 22.3246 72.3478 22.3248C72.9089 22.3256 73.47 22.3252 74.0312 22.3253C74.1294 22.3253 74.2274 22.3252 74.3255 22.3256C74.951 22.3283 75.5765 22.3312 76.2019 22.3338C76.3397 22.3344 76.4774 22.3334 76.6151 22.3347C76.6839 22.3354 76.7526 22.3416 76.8214 22.3418C77.3685 22.3426 77.9155 22.3425 78.4625 22.3427C78.5465 22.3427 78.6304 22.3424 78.7144 22.3427C79.353 22.3455 79.9917 22.3483 80.6303 22.3515C80.6539 22.3516 80.6779 22.3549 80.7009 22.3601C80.7401 22.3689 80.7629 22.4019 80.7629 22.4485C80.7633 22.616 80.763 22.7835 80.7631 22.951L80.7634 22.9509Z" fill="#FBFDFA"/>
<path d="M90.424 22.8868C90.424 22.9571 90.4243 23.0275 90.424 23.0977C90.4215 23.6632 90.4188 24.2288 90.4162 24.7943C90.4157 24.9021 90.4168 25.0099 90.4155 25.1177C90.414 25.2325 90.4085 25.3474 90.4083 25.4623C90.4075 26.015 90.4079 26.5676 90.4078 27.1204C90.4078 27.2213 90.4078 27.3222 90.4072 27.4231C90.4048 27.7814 90.4018 28.1397 90.3994 28.498C90.3988 28.5887 90.4242 28.6149 90.5159 28.6177C90.6226 28.6209 90.7294 28.6249 90.8361 28.6251C91.3057 28.6259 91.7753 28.6284 92.2448 28.6232C92.3484 28.622 92.413 28.6627 92.4678 28.7419C92.6299 28.9765 92.7941 29.2098 92.9574 29.4437C93.0007 29.5056 93.0436 29.5675 93.0865 29.6297C93.0927 29.6388 93.0979 29.6489 93.1024 29.659C93.1171 29.6919 93.1098 29.712 93.0746 29.7174C93.0277 29.7243 92.9799 29.7272 92.9325 29.7275C92.775 29.7284 92.6176 29.7273 92.4601 29.7271C92.3468 29.7269 92.2336 29.7271 92.1202 29.7271C92.0448 29.7271 91.9694 29.7271 91.894 29.7271C91.8073 29.7271 91.7207 29.7278 91.6341 29.7267C91.6007 29.7262 91.5673 29.7193 91.5339 29.719C91.4261 29.718 91.3184 29.7185 91.2107 29.7185C90.9031 29.7185 90.5955 29.7185 90.288 29.7185C90.2251 29.7185 90.1624 29.7185 90.0995 29.7185C90.0088 29.7185 89.9179 29.7193 89.8271 29.7182C89.7922 29.7178 89.7574 29.7116 89.7226 29.711C89.6905 29.7104 89.6584 29.7137 89.6263 29.7154C89.6109 29.7163 89.5954 29.7183 89.5801 29.7183C89.485 29.7185 89.3899 29.7202 89.295 29.7176C89.1962 29.7151 89.1704 29.6786 89.1709 29.5943C89.1751 28.9119 89.1776 28.2296 89.1805 27.5473C89.1833 26.9099 89.1862 26.2726 89.1886 25.6353C89.1918 24.794 89.1941 23.9527 89.1977 23.1115C89.1985 22.9006 89.2024 22.6898 89.2051 22.4789C89.2059 22.4206 89.2374 22.3884 89.316 22.3865C89.4324 22.3835 89.549 22.3905 89.6655 22.3915C89.73 22.3921 89.7945 22.3883 89.8591 22.3881C89.894 22.3879 89.929 22.3924 89.9638 22.3925C90.0845 22.3931 90.2052 22.3927 90.3259 22.3928C90.3933 22.3928 90.424 22.422 90.4244 22.4899C90.4254 22.6222 90.4247 22.7545 90.4247 22.8868C90.4244 22.8868 90.4243 22.8868 90.424 22.8868V22.8868Z" fill="#FBFDFA"/>
<path d="M88.2632 29.7103C88.1749 29.7103 88.0868 29.7103 87.9985 29.7103C87.9244 29.7103 87.8502 29.7111 87.7761 29.7099C87.7384 29.7093 87.7008 29.703 87.6632 29.7026C87.6241 29.7022 87.585 29.7057 87.5459 29.7075C87.5318 29.7082 87.5178 29.71 87.5039 29.71C87.4089 29.7102 87.3138 29.7089 87.2188 29.7105C87.1202 29.7121 87.0505 29.6753 86.9929 29.5894C86.8161 29.3255 86.6308 29.0675 86.4492 28.807C86.318 28.6189 86.1873 28.4304 86.0563 28.2423C85.7629 27.8209 85.4694 27.3996 85.1758 26.9783C84.9617 26.671 84.7471 26.364 84.5331 26.0568C84.2685 25.6769 84.0048 25.2966 83.7396 24.9171C83.4752 24.5388 83.2096 24.1612 82.9441 23.7836C82.8605 23.6647 82.7755 23.5468 82.6913 23.4283C82.6465 23.3654 82.6425 23.3248 82.6938 23.2554C82.8791 23.0047 83.06 22.7507 83.2426 22.4979C83.245 22.4945 83.2465 22.4904 83.2489 22.487C83.2965 22.4233 83.3337 22.42 83.381 22.4833C83.4505 22.5763 83.5148 22.6732 83.5822 22.7678C83.8198 23.1013 84.0585 23.4341 84.2955 23.7681C84.5149 24.0771 84.7324 24.3875 84.9515 24.6968C85.143 24.9672 85.3358 25.2368 85.5275 25.5071C85.6933 25.7409 85.8585 25.9751 86.0238 26.2092C86.2361 26.5096 86.4477 26.8105 86.6606 27.1105C86.9399 27.5041 87.2205 27.8968 87.4997 28.2904C87.6792 28.5436 87.8569 28.7981 88.0358 29.0517C88.1681 29.2391 88.3009 29.426 88.4335 29.6132C88.4734 29.6694 88.4621 29.6947 88.3934 29.7019C88.3503 29.7063 88.307 29.7097 88.2638 29.7136C88.2637 29.7125 88.2636 29.7113 88.2634 29.7102L88.2632 29.7103Z" fill="#FBFDFA"/>
<path d="M79.4059 29.6765C79.3263 29.6765 79.2566 29.6765 79.1868 29.6765C79.0974 29.6765 79.008 29.6765 78.9186 29.6765C78.8306 29.6765 78.7426 29.6774 78.6546 29.6761C78.6127 29.6755 78.5709 29.6687 78.529 29.6684C78.4185 29.6677 78.3081 29.6702 78.1976 29.6685C78.1746 29.6682 78.1384 29.6607 78.132 29.6461C78.1237 29.6273 78.1326 29.5932 78.146 29.5741C78.2663 29.4039 78.3893 29.2357 78.5112 29.0666C78.6976 28.808 78.8834 28.549 79.0698 28.2903C79.2367 28.0587 79.4041 27.8275 79.5709 27.5959C79.7442 27.3553 79.917 27.1143 80.0902 26.8736C80.2847 26.6034 80.4793 26.3334 80.674 26.0634C80.9095 25.7367 81.1453 25.4102 81.3805 25.0833C81.4744 24.9527 81.5664 24.8208 81.6605 24.6904C81.852 24.425 82.0443 24.1602 82.2361 23.895C82.2632 23.8577 82.288 23.8186 82.3162 23.7822C82.3651 23.7193 82.4066 23.7213 82.4519 23.7869C82.4932 23.8468 82.5337 23.9073 82.5755 23.9669C82.7197 24.1732 82.8641 24.3795 83.0089 24.5855C83.0467 24.6393 83.0484 24.6832 83.0111 24.7357C82.8905 24.9056 82.7699 25.0757 82.6488 25.2453C82.501 25.4522 82.3518 25.6584 82.2046 25.8658C82.0752 26.0482 81.9481 26.2324 81.819 26.4151C81.6882 26.6002 81.5561 26.7843 81.4248 26.969C81.3213 27.1148 81.2183 27.261 81.1147 27.4068C80.9574 27.6279 80.7998 27.8488 80.6423 28.0696C80.4532 28.3349 80.2632 28.5997 80.0748 28.8656C79.9213 29.0824 79.7696 29.3005 79.617 29.5179C79.5969 29.5465 79.5769 29.5752 79.5553 29.6027C79.5149 29.654 79.4654 29.6873 79.4057 29.6764L79.4059 29.6765Z" fill="#FBFDFA"/>
<path d="M68.2652 23.6534C68.0514 23.6534 67.8375 23.6536 67.6237 23.6533C67.4849 23.653 67.3461 23.6521 67.2073 23.651C67.0527 23.6498 66.8981 23.6472 66.7434 23.6469C66.3663 23.6462 65.9891 23.6473 65.612 23.6459C65.3651 23.645 65.1181 23.6404 64.8711 23.6389C64.8127 23.6386 64.7777 23.6033 64.7485 23.562C64.646 23.4171 64.5463 23.2703 64.4444 23.125C64.2775 22.8871 64.1096 22.6498 63.9422 22.4122C63.9382 22.4065 63.935 22.4003 63.9312 22.3944C63.8888 22.3301 63.9047 22.2963 63.9816 22.2905C64.0038 22.2889 64.0264 22.2919 64.0487 22.2919C64.3512 22.2921 64.6538 22.292 64.9563 22.2921C65.1359 22.2921 65.3155 22.2916 65.4952 22.2925C66.0197 22.2949 66.5442 22.2978 67.0688 22.3004C67.1503 22.3009 67.2319 22.2995 67.3134 22.3008C67.435 22.3026 67.5566 22.3072 67.6783 22.3082C67.7386 22.3087 67.7989 22.3016 67.8591 22.3019C67.9418 22.3022 68.0247 22.308 68.1074 22.3083C68.3917 22.3092 68.6759 22.3088 68.9602 22.309C68.9756 22.309 68.9915 22.308 69.0064 22.3111C69.0697 22.3239 69.0909 22.3547 69.0907 22.4396C69.0906 22.5028 69.0843 22.566 69.0841 22.6292C69.0834 22.9331 69.0838 23.2371 69.0838 23.541C69.0838 23.6246 69.0532 23.6553 68.9704 23.6553C68.7353 23.6553 68.5004 23.6553 68.2654 23.6553V23.6534L68.2652 23.6534Z" fill="#FBFDFA"/>
<path d="M74.8488 29.1586C74.8488 29.0463 74.8482 28.9339 74.8491 28.8216C74.8495 28.781 74.8554 28.7404 74.8552 28.6998C74.8551 28.6508 74.8492 28.6018 74.8494 28.5529C74.8516 28.0202 74.8545 27.4874 74.8571 26.9547C74.8577 26.844 74.8571 26.7333 74.8578 26.6226C74.86 26.3147 74.8621 26.0067 74.8662 25.6988C74.8664 25.6796 74.8824 25.6607 74.891 25.6416C74.9088 25.6496 74.9327 25.6529 74.9431 25.6665C74.993 25.7321 75.0396 25.8002 75.0869 25.8678C75.3095 26.186 75.532 26.5043 75.7545 26.8225C75.8724 26.9909 75.9899 27.1595 76.1078 27.3279C76.1376 27.3703 76.153 27.4165 76.1526 27.4691C76.1515 27.6239 76.1532 27.7786 76.1519 27.9334C76.1507 28.0665 76.1451 28.1995 76.1446 28.3326C76.1435 28.7387 76.144 29.1448 76.1439 29.5509C76.1439 29.6383 76.1003 29.675 76.0141 29.6607C76.0031 29.6589 75.9916 29.6593 75.9804 29.6593C75.8544 29.6593 75.7283 29.6593 75.6023 29.6593C75.4819 29.6593 75.3617 29.6593 75.2413 29.6593C75.1576 29.6593 75.0739 29.6601 74.9902 29.6589C74.9625 29.6585 74.9343 29.655 74.9073 29.649C74.8684 29.6403 74.8484 29.6101 74.8482 29.564C74.8479 29.429 74.8481 29.2938 74.8481 29.1588H74.8488V29.1586Z" fill="#FBFDFA"/>
<rect width="52" height="52" fill="white"/>
<path d="M38.9363 30.4693V29.3966C38.9363 28.7751 39.0384 28.2601 39.2428 27.8515C39.4471 27.4343 39.7408 27.0938 40.1239 26.8299C40.5155 26.5574 40.9922 26.3361 41.5541 26.1658L42.4097 25.8977C42.8779 25.7529 43.2355 25.5444 43.4824 25.2719C43.7378 24.9995 43.8655 24.659 43.8655 24.2503V24.1993C43.8655 23.7736 43.7207 23.4373 43.4313 23.1904C43.1418 22.935 42.746 22.8073 42.2437 22.8073C41.7499 22.8073 41.3498 22.9435 41.0433 23.216C40.7454 23.4799 40.5964 23.863 40.5964 24.3653V24.5951H38.9618V24.3908C38.9618 23.7438 39.1065 23.1947 39.396 22.7435C39.6854 22.2923 40.0771 21.9475 40.5708 21.7091C41.0731 21.4707 41.6307 21.3516 42.2437 21.3516C42.8567 21.3516 43.41 21.4707 43.9038 21.7091C44.3976 21.939 44.7849 22.2667 45.0659 22.6924C45.3553 23.1096 45.5 23.6033 45.5 24.1737V24.3014C45.5 24.8718 45.3808 25.3571 45.1425 25.7572C44.9126 26.1488 44.5976 26.4723 44.1975 26.7277C43.7974 26.9746 43.3419 27.1789 42.8311 27.3407L42.0138 27.5961C41.469 27.7663 41.0987 27.9579 40.9029 28.1707C40.707 28.375 40.6091 28.6389 40.6091 28.9624V29.0135H45.4234V30.4693H38.9363Z" fill="black"/>
<path fill-rule="evenodd" clip-rule="evenodd" d="M35.0012 30.6485C34.3712 30.6485 33.8136 30.5165 33.3283 30.2526C32.8516 29.9802 32.477 29.6013 32.2046 29.1161C31.9407 28.6223 31.8087 28.0434 31.8087 27.3794V27.2261C31.8087 26.5621 31.9407 25.9875 32.2046 25.5022C32.4685 25.0084 32.8388 24.6296 33.3156 24.3657C33.7923 24.0932 34.3457 23.957 34.9757 23.957C35.5971 23.957 36.1377 24.0975 36.5974 24.3784C37.0572 24.6509 37.4147 25.034 37.6701 25.5277C37.9255 26.013 38.0532 26.5791 38.0532 27.2261V27.7752H33.4433C33.4603 28.2094 33.622 28.5627 33.9285 28.8351C34.235 29.1076 34.6096 29.2438 35.0523 29.2438C35.5035 29.2438 35.8355 29.1459 36.0483 28.9501C36.2612 28.7543 36.4229 28.5372 36.5336 28.2988L37.8489 28.9884C37.7297 29.2097 37.5552 29.4524 37.3253 29.7163C37.104 29.9717 36.806 30.193 36.4314 30.3803C36.0568 30.5591 35.5801 30.6485 35.0012 30.6485ZM36.4187 26.5749H33.456C33.5156 26.2088 33.6731 25.9151 33.9285 25.6937C34.1839 25.4724 34.5287 25.3617 34.9629 25.3617C35.38 25.3617 35.7163 25.4724 35.9717 25.6937C36.2356 25.9151 36.3846 26.2088 36.4187 26.5749Z" fill="black"/>
<path d="M28.2406 30.6485C27.4148 30.6485 26.738 30.4697 26.2102 30.1121C25.6824 29.7546 25.3631 29.2438 25.2524 28.5797L26.7338 28.1966C26.8189 28.6393 26.9977 28.9458 27.2701 29.1161C27.551 29.2863 27.8745 29.3715 28.2406 29.3715C28.6152 29.3715 28.8919 29.3076 29.0707 29.1799C29.2494 29.0437 29.3388 28.8777 29.3388 28.6819C29.3388 28.4861 29.2537 28.3371 29.0834 28.235C28.9132 28.1243 28.6407 28.0349 28.2661 27.9668L27.9086 27.9029C27.4659 27.8178 27.0615 27.7029 26.6954 27.5582C26.3294 27.4049 26.0357 27.1963 25.8143 26.9324C25.593 26.6685 25.4823 26.328 25.4823 25.9108C25.4823 25.2808 25.7122 24.7998 26.1719 24.4678C26.6316 24.1273 27.236 23.957 27.9852 23.957C28.6918 23.957 29.2792 24.1145 29.7475 24.4295C30.2157 24.7445 30.5222 25.1574 30.6669 25.6682L29.1728 26.1279C29.1047 25.8044 28.9642 25.5746 28.7514 25.4383C28.5471 25.3021 28.2917 25.234 27.9852 25.234C27.6787 25.234 27.4446 25.2894 27.2829 25.4C27.1211 25.5022 27.0402 25.6469 27.0402 25.8342C27.0402 26.0385 27.1254 26.1918 27.2956 26.2939C27.4659 26.3876 27.6958 26.4599 27.9852 26.511L28.3428 26.5749C28.8195 26.66 29.2494 26.7749 29.6325 26.9197C30.0241 27.0559 30.3306 27.2559 30.552 27.5198C30.7818 27.7752 30.8968 28.1243 30.8968 28.567C30.8968 29.231 30.6541 29.7461 30.1689 30.1121C29.6921 30.4697 29.0494 30.6485 28.2406 30.6485Z" fill="black"/>
<path fill-rule="evenodd" clip-rule="evenodd" d="M20.9962 30.6485C20.3662 30.6485 19.8001 30.5208 19.2978 30.2654C18.7955 30.01 18.3997 29.6397 18.1102 29.1544C17.8208 28.6691 17.676 28.086 17.676 27.4049V27.2006C17.676 26.5195 17.8208 25.9364 18.1102 25.4511C18.3997 24.9659 18.7955 24.5955 19.2978 24.3401C19.8001 24.0847 20.3662 23.957 20.9962 23.957C21.6262 23.957 22.1923 24.0847 22.6946 24.3401C23.1969 24.5955 23.5928 24.9659 23.8822 25.4511C24.1717 25.9364 24.3164 26.5195 24.3164 27.2006V27.4049C24.3164 28.086 24.1717 28.6691 23.8822 29.1544C23.5928 29.6397 23.1969 30.01 22.6946 30.2654C22.1923 30.5208 21.6262 30.6485 20.9962 30.6485ZM22.2221 28.7458C21.8986 29.0607 21.49 29.2182 20.9962 29.2182C20.5024 29.2182 20.0938 29.0607 19.7703 28.7458C19.4468 28.4223 19.285 27.9625 19.285 27.3666V27.2389C19.285 26.643 19.4468 26.1875 19.7703 25.8725C20.0938 25.549 20.5024 25.3873 20.9962 25.3873C21.4985 25.3873 21.9071 25.549 22.2221 25.8725C22.5456 26.1875 22.7074 26.643 22.7074 27.2389V27.3666C22.7074 27.9625 22.5456 28.4223 22.2221 28.7458Z" fill="black"/>
<path d="M14.7821 30.4692V21.5303H16.3911V30.4692H14.7821Z" fill="black"/>
<path d="M10.1011 30.6481C8.99439 30.6481 8.11752 30.3416 7.47051 29.7286C6.8235 29.1072 6.5 28.2218 6.5 27.0725V24.9271C6.5 23.7778 6.8235 22.8967 7.47051 22.2838C8.11752 21.6623 8.99439 21.3516 10.1011 21.3516C11.1993 21.3516 12.0464 21.6538 12.6423 22.2582C13.2468 22.8542 13.549 23.6757 13.549 24.7228V24.7994H11.8889V24.6717C11.8889 24.1439 11.7399 23.7097 11.442 23.3692C11.1525 23.0287 10.7056 22.8584 10.1011 22.8584C9.50519 22.8584 9.03696 23.0414 8.69643 23.4075C8.3559 23.7736 8.18563 24.2716 8.18563 24.9016V27.098C8.18563 27.7195 8.3559 28.2175 8.69643 28.5921C9.03696 28.9582 9.50519 29.1412 10.1011 29.1412C10.7056 29.1412 11.1525 28.971 11.442 28.6304C11.7399 28.2814 11.8889 27.8472 11.8889 27.3279V27.098H13.549V27.2768C13.549 28.3239 13.2468 29.1497 12.6423 29.7542C12.0464 30.3501 11.1993 30.6481 10.1011 30.6481Z" fill="black"/>
</g>
<defs>
<clipPath id="clip0_354_10666">
<rect width="104" height="52" rx="4" fill="white"/>
</clipPath>
</defs>
</svg>
