<svg width="32" height="32" viewBox="0 0 32 32" fill="none" xmlns="http://www.w3.org/2000/svg">
<path d="M27.2694 10.4375C27.1382 10.5196 24.015 12.253 24.015 16.0962C24.1622 20.4791 27.9563 22.0161 28.0214 22.0161C27.9563 22.0983 27.4486 24.11 25.9446 26.2188C24.751 28.0353 23.4262 29.8668 21.4144 29.8668C19.5008 29.8668 18.8139 28.6561 16.6059 28.6561C14.2347 28.6561 13.5638 29.8668 11.7483 29.8668C9.73656 29.8668 8.31363 27.9372 7.05496 26.1377C5.41976 23.7825 4.0299 20.0865 3.98083 16.5378C3.94776 14.6572 4.3083 12.8087 5.2235 11.2386C6.51523 9.04655 8.82136 7.55855 11.3398 7.50948C13.2694 7.44442 14.9867 8.83428 16.1643 8.83428C17.2928 8.83428 19.4027 7.50948 21.7899 7.50948C22.8203 7.51055 25.568 7.82095 27.2694 10.4375ZM16.0011 7.13402C15.6576 5.41668 16.6059 3.69935 17.4891 2.60388C18.6176 1.27908 20.4 0.379883 21.9371 0.379883C22.0352 2.09722 21.4134 3.78148 20.3019 5.00815C19.3046 6.33295 17.5872 7.33028 16.0011 7.13402Z" fill="white"/>
</svg>
