<svg width="32" height="32" viewBox="0 0 32 32" fill="none" xmlns="http://www.w3.org/2000/svg">
<g clip-path="url(#clip0_354_10594)">
<path d="M32.04 6.67973C30.8575 7.20473 29.59 7.55723 28.2575 7.71723C29.6175 6.90223 30.6625 5.61223 31.1525 4.07723C29.8825 4.82973 28.47 5.37723 26.9725 5.67223C25.7725 4.39223 24.0625 3.59473 22.17 3.59473C18.535 3.59473 15.5875 6.53973 15.5875 10.1747C15.5875 10.6897 15.6475 11.1922 15.76 11.6747C10.29 11.3997 5.44252 8.77973 2.19502 4.79723C1.62752 5.77223 1.30502 6.90223 1.30502 8.10723C1.30502 10.3897 2.46502 12.4047 4.23252 13.5872C3.15252 13.5522 2.13752 13.2547 1.25002 12.7622C1.25002 12.7897 1.25002 12.8172 1.25002 12.8447C1.25002 16.0347 3.52002 18.6922 6.52752 19.2997C5.97752 19.4497 5.39502 19.5297 4.79502 19.5297C4.37002 19.5297 3.95752 19.4897 3.55502 19.4097C4.39502 22.0222 6.82503 23.9297 9.70252 23.9822C7.45252 25.7472 4.61502 26.7972 1.53002 26.7972C0.997524 26.7972 0.475025 26.7672 -0.0374756 26.7047C2.87252 28.5747 6.33252 29.6622 10.05 29.6622C22.155 29.6622 28.775 19.6347 28.775 10.9397C28.775 10.6547 28.7675 10.3672 28.7575 10.0872C30.0425 9.15973 31.1575 7.99973 32.04 6.67973Z" fill="white"/>
</g>
<defs>
<clipPath id="clip0_354_10594">
<rect width="32" height="32" fill="white"/>
</clipPath>
</defs>
</svg>
