<svg width="32" height="32" viewBox="0 0 32 32" fill="none" xmlns="http://www.w3.org/2000/svg">
<path d="M16.0058 1.26855C7.88611 1.26855 1.28003 7.87463 1.28003 15.9943C1.28003 24.114 7.88611 30.7201 16.0058 30.7201C24.1255 30.7201 30.7316 24.1146 30.7316 15.9943C30.7316 7.87399 24.1255 1.26855 16.0058 1.26855ZM22.2388 22.6132C22.0538 22.891 21.7491 23.0407 21.4387 23.0407C21.2557 23.0407 21.0707 22.9889 20.9069 22.8794C19.3242 21.8241 16.64 21.1201 14.4 21.1207C12.0231 21.122 10.2413 21.7057 10.2234 21.7114C9.72163 21.8817 9.17699 21.6078 9.00931 21.1047C8.84163 20.6017 9.11363 20.0577 9.61667 19.8906C9.70115 19.8625 11.7152 19.2026 14.4 19.2014C16.64 19.2001 19.7555 19.8042 21.9725 21.282C22.4141 21.5764 22.5331 22.1722 22.2388 22.6132ZM24.1536 18.6836C23.9456 19.0177 23.5866 19.2014 23.2199 19.2014C23.0215 19.2014 22.8205 19.1482 22.64 19.035C19.7703 17.2468 16.8211 16.8686 14.2803 16.891C11.4119 16.9166 9.11811 17.4638 9.07907 17.4753C8.49859 17.6404 7.88803 17.3012 7.72227 16.7182C7.55651 16.1338 7.89635 15.5265 8.48003 15.3614C8.65731 15.3108 10.9466 14.7476 14.0807 14.7214C16.9383 14.6977 20.4992 15.1118 23.8029 17.17C24.3168 17.49 24.4749 18.1684 24.1536 18.6836ZM26.064 14.0884C25.8253 14.4942 25.3978 14.7201 24.9587 14.7201C24.7386 14.7201 24.5159 14.6631 24.3117 14.5441C20.9671 12.5806 16.9005 12.1639 14.0781 12.1601C14.0647 12.1601 14.0512 12.1601 14.0378 12.1601C10.6247 12.1601 7.99619 12.7604 7.96995 12.7668C7.28003 12.9249 6.59331 12.4986 6.43331 11.81C6.27331 11.122 6.70019 10.4346 7.38819 10.274C7.50659 10.2465 10.3149 9.60007 14.0378 9.60007C14.0525 9.60007 14.0672 9.60007 14.0819 9.60007C17.2211 9.60455 21.769 10.082 25.6083 12.3361C26.2176 12.6945 26.4218 13.4791 26.064 14.0884Z" fill="white"/>
</svg>
