<svg width="32" height="32" viewBox="0 0 32 32" fill="none" xmlns="http://www.w3.org/2000/svg">
<path d="M28.776 8.24767C28.4693 7.10101 27.5653 6.19701 26.4186 5.89034C24.3386 5.33301 16 5.33301 16 5.33301C16 5.33301 7.66129 5.33301 5.58129 5.89034C4.43463 6.19701 3.53063 7.10101 3.22396 8.24767C2.66663 10.3277 2.66663 15.9997 2.66663 15.9997C2.66663 15.9997 2.66663 21.6717 3.22396 23.7517C3.53063 24.8983 4.43463 25.8023 5.58129 26.109C7.66129 26.6663 16 26.6663 16 26.6663C16 26.6663 24.3386 26.6663 26.4186 26.109C27.5666 25.8023 28.4693 24.8983 28.776 23.7517C29.3333 21.6717 29.3333 15.9997 29.3333 15.9997C29.3333 15.9997 29.3333 10.3277 28.776 8.24767ZM13.3333 19.4637V12.5357C13.3333 12.0223 13.8893 11.7023 14.3333 11.9583L20.3333 15.4223C20.7773 15.6783 20.7773 16.321 20.3333 16.577L14.3333 20.041C13.8893 20.2983 13.3333 19.977 13.3333 19.4637Z" fill="white"/>
</svg>
