<svg width="32" height="32" viewBox="0 0 32 32" fill="none" xmlns="http://www.w3.org/2000/svg">
<path d="M2.38601 15.2525C2.38601 15.2525 3.01904 15.145 3.27834 15.4275C3.53886 15.71 3.36843 16.2938 3.02269 16.3025C2.67696 16.3138 2.35679 16.38 2.13036 16.1288C2.07168 16.0601 2.03096 15.9773 2.01202 15.888C1.99309 15.7988 1.99657 15.7061 2.02213 15.6186C2.04769 15.5311 2.0945 15.4517 2.15815 15.3879C2.22181 15.3241 2.30022 15.2767 2.38601 15.2525ZM9.2471 19.2413C9.18623 19.2463 9.12171 19.2176 9.05597 19.1688C8.60311 18.5138 8.43876 16.2725 8.23059 16.1388C8.01512 16 7.23479 17.3801 5.68021 17.2326C5.03135 17.1701 4.37032 16.7325 3.98076 16.43C4.01728 15.9213 4.02337 14.7313 4.99118 15.1175C5.57795 15.3538 6.58593 15.9988 7.46974 14.84C8.44729 13.5588 8.98536 13.9313 9.30918 14.21C9.63178 14.4875 9.41753 15.9363 9.8996 15.5313C10.3817 15.1263 12.3283 12.6125 12.3283 12.6125C12.3283 12.6125 13.8354 11.035 14.0667 12.6938C14.298 14.3525 15.2792 16.19 15.5397 16.1375C15.8014 16.085 18.8326 9.68999 19.2673 9.27624C19.7019 8.86374 21.1627 8.91874 21.0933 9.97625C21.0239 11.035 20.8742 17.6151 20.8742 17.6151C20.8742 17.6151 20.7037 19.4701 20.9837 18.4788C21.0994 18.0676 21.2236 17.6976 21.3794 17.2651C22.1268 14.7775 23.4014 10.53 24.0369 8.34123L24.4058 7.02247C24.4377 6.88735 24.4759 6.75387 24.5202 6.62247C24.5725 6.43497 24.6091 6.31372 24.62 6.28122C24.648 6.19872 24.7284 6.13622 24.8391 6.09122C24.9524 6.01747 25.0729 6.01372 25.2092 6.00997C25.5623 5.97747 26.0151 6.02497 26.4229 6.14497C26.5568 6.15156 26.6856 6.199 26.793 6.28122L26.8101 6.29372L26.8186 6.29872C26.8614 6.33177 26.8999 6.37043 26.933 6.41372L26.9379 6.41872C26.9574 6.44372 26.9781 6.47497 26.9988 6.50872C27.2252 6.85497 27.3652 7.49373 27.2252 8.62749C26.8758 11.455 26.6043 17.2726 26.6043 17.2726C26.6043 17.2726 26.552 17.5513 27.1132 16.3263C27.1327 16.2838 27.1582 16.2463 27.1801 16.2075C27.2208 16.1788 27.2569 16.1438 27.2873 16.1038C27.6342 15.675 28.5667 15.4225 29.2131 15.4288C29.4858 15.4625 29.7147 15.5338 29.851 15.6225C30.1067 16.0263 29.9557 17.5138 29.9557 17.5138C29.4177 17.5663 28.3914 17.8663 28.0286 17.9213C27.6634 17.9776 27.112 20.4288 26.345 20.1776C25.5769 19.9276 23.8652 18.8126 23.8652 18.6601C23.8652 18.5263 23.9992 16.8976 24.0357 16.4788L24.0418 16.395L24.043 16.3788C24.0673 16.0488 24.0466 15.9038 23.8993 16.2338C23.7727 16.5175 23.2213 18.3363 22.6065 20.3163C22.542 20.4888 21.3806 24.1376 21.2272 24.5826C21.0446 25.0976 20.8924 25.4926 20.7877 25.6976C20.6271 25.9226 20.4104 26.0651 20.1072 25.9701C19.3525 25.7326 18.3981 24.6514 18.3895 24.3826C18.3713 22.8701 18.4601 14.7288 18.1059 15.4075C17.7431 16.1025 14.9212 20.9301 14.9212 20.9301C14.8738 20.9376 14.8397 20.9363 14.7971 20.9401C14.5974 20.9176 14.2882 20.8501 14.203 20.6526C14.1981 20.6401 14.1908 20.6288 14.1872 20.6176C14.1817 20.601 14.1764 20.5843 14.1713 20.5676C14.1336 20.4351 14.1178 20.2913 14.0837 20.1726C13.9583 19.7313 13.755 19.0976 13.5432 18.4526C13.2194 17.3526 12.8846 16.2275 12.8286 16.1038C12.7215 15.8613 12.5644 15.9638 12.4232 16.1038C11.7938 16.6588 10.4559 19.1063 9.2471 19.2413Z" fill="white"/>
</svg>
