<svg width="32" height="32" viewBox="0 0 32 32" fill="none" xmlns="http://www.w3.org/2000/svg">
<path d="M19.2 7.04004C16.895 7.04004 14.72 8.18504 13.44 10.04V23.04H27.2C29.825 23.04 32 20.865 32 18.24C32 15.615 29.825 13.44 27.2 13.44C26.88 13.44 26.56 13.495 26.24 13.56C25.92 9.91254 22.9125 7.04004 19.2 7.04004ZM10.88 10.24C10.4325 10.24 9.985 10.295 9.6 10.36V23.04H10.88V10.24ZM11.52 10.24V23.04H12.8V10.56C12.415 10.4325 11.9675 10.305 11.52 10.24ZM8.96 10.56C8.5125 10.7525 8.065 10.945 7.68 11.2V23.04H8.96V10.56ZM7.04 11.72C6.5275 12.1675 6.08 12.74 5.76 13.38V23.04H7.04V11.72ZM4.16 14.08C4.0475 14.0875 3.935 14.1075 3.84 14.14V22.98C4.0325 23.045 4.2875 23.04 4.48 23.04H5.12V14.14C4.9275 14.075 4.6725 14.08 4.48 14.08C4.385 14.08 4.2725 14.0725 4.16 14.08ZM3.2 14.28C2.7525 14.4075 2.305 14.6 1.92 14.92V22.2C2.305 22.455 2.7525 22.7125 3.2 22.84V14.28ZM1.28 15.42C0.5125 16.2525 0 17.345 0 18.56C0 19.775 0.5125 20.8675 1.28 21.7V15.42Z" fill="white"/>
</svg>
