<svg width="32" height="32" viewBox="0 0 32 32" fill="none" xmlns="http://www.w3.org/2000/svg">
<path d="M20.4801 7.04027H23.6801C24.0333 7.04027 24.3201 6.75355 24.3201 6.40027V2.08859C24.3201 1.75323 24.0621 1.47419 23.7281 1.45051C22.7098 1.37819 20.7207 1.28027 19.2903 1.28027C15.3601 1.28027 12.8001 3.63547 12.8001 7.91579V12.1603H8.32005C7.96677 12.1603 7.68005 12.447 7.68005 12.8003V17.2803C7.68005 17.6336 7.96677 17.9203 8.32005 17.9203H12.8001V30.0803C12.8001 30.4336 13.0868 30.7203 13.4401 30.7203H17.9201C18.2733 30.7203 18.5601 30.4336 18.5601 30.0803V17.9203H23.1821C23.5085 17.9203 23.7825 17.6752 23.8183 17.3507L24.3162 12.8707C24.3585 12.4918 24.0615 12.1603 23.6801 12.1603H18.5601V8.96027C18.5601 7.89979 19.4196 7.04027 20.4801 7.04027Z" fill="white"/>
</svg>
