<svg width="96" height="48" viewBox="0 0 96 48" fill="none" xmlns="http://www.w3.org/2000/svg">
<g clip-path="url(#clip0_24_3500)">
<rect width="48" height="48" transform="translate(48)" fill="#006E09"/>
<path d="M58.3402 20.5675C58.3402 20.5675 58.53 20.6061 58.5939 20.7005C58.8086 21.018 59.0298 21.3311 59.2488 21.6457C59.268 21.6733 59.292 21.6978 59.3081 21.727C59.3185 21.7456 59.3288 21.7766 59.3204 21.7901C59.3102 21.8064 59.2799 21.8177 59.2583 21.8179C58.9634 21.8195 58.6685 21.8196 58.3736 21.8185C57.9298 21.8168 57.4861 21.8134 57.0425 21.8115C56.784 21.8104 56.5253 21.8147 56.2669 21.8088C56.1719 21.8067 56.078 21.803 55.9865 21.8276C55.7728 21.8851 55.6099 22.0076 55.5045 22.2059C55.4566 22.2959 55.4317 22.3899 55.428 22.4902C55.4168 22.7886 55.5434 23.0119 55.7985 23.1643C55.9223 23.2383 56.0574 23.2595 56.1998 23.2596C56.7466 23.2602 57.2934 23.264 57.8402 23.2665C57.9259 23.2669 58.0117 23.2662 58.0975 23.2665C58.6975 23.2694 59.2975 23.2725 59.8975 23.2753C60.0127 23.2758 60.1279 23.2751 60.243 23.2757C60.673 23.2776 61.1029 23.2798 61.5328 23.2817C61.6108 23.2821 61.6887 23.2806 61.7667 23.2821C61.9712 23.2862 62.1725 23.3101 62.3687 23.3722C62.6131 23.4494 62.8324 23.5722 63.0298 23.7336C63.2231 23.8914 63.3766 24.0826 63.5002 24.3001C63.5752 24.4321 63.6368 24.5689 63.6808 24.7133C63.7232 24.8527 63.751 24.9954 63.7622 25.1411C63.7748 25.3027 63.7722 25.463 63.7488 25.6243C63.7229 25.8028 63.6742 25.9735 63.6074 26.1398C63.547 26.2903 63.4627 26.4279 63.3669 26.558C63.3157 26.6276 63.2632 26.6977 63.2023 26.7586C63.0199 26.9407 62.8154 27.0923 62.5788 27.1994C62.425 27.2691 62.2638 27.3111 62.0996 27.3442C62.0845 27.3472 62.0685 27.3462 62.0529 27.3463C59.4111 27.3469 54.1034 27.3154 54.1034 27.3154C54.0498 27.3174 54.015 27.2952 54 27.2431V25.9958C54.0154 25.954 54.0454 25.9389 54.0896 25.9391C54.3958 25.9403 54.702 25.9391 55.0081 25.9404C55.1531 25.9409 55.2981 25.9454 55.4431 25.9471C55.5106 25.948 55.5782 25.9464 55.6457 25.9467C56.2338 25.9494 56.8218 25.9526 57.4097 25.9549C57.667 25.956 57.9242 25.955 58.1814 25.9552C58.5383 25.9553 58.8953 25.9552 59.2521 25.9563C59.3649 25.9566 59.4777 25.9624 59.5905 25.9626C60.0075 25.9635 60.4245 25.9627 60.8416 25.9638C61.0012 25.9641 61.1608 25.9687 61.3205 25.9698C61.4967 25.971 61.6728 25.971 61.8491 25.9702C61.8904 25.9701 61.9327 25.9695 61.9729 25.9611C62.1615 25.9216 62.3259 25.8396 62.4458 25.6824C62.5806 25.5059 62.6236 25.308 62.5721 25.0939C62.5338 24.9347 62.4432 24.8048 62.3125 24.7045C62.2047 24.622 62.0837 24.5681 61.9485 24.557C61.8351 24.5476 61.7209 24.5481 61.607 24.5478C59.6863 24.5409 57.6835 24.7185 55.7708 24.5138C55.5914 24.4947 55.4171 24.4495 55.2482 24.3836C55.0275 24.2976 54.8311 24.1731 54.6572 24.0145C54.4751 23.8486 54.3215 23.6583 54.217 23.4336C54.1618 23.3148 54.1111 23.1925 54.0737 23.0672C54.0403 22.9557 54.0168 22.84 54.0192 22.7209C54.0224 22.5642 54.0101 22.4064 54.0256 22.2512C54.0416 22.0916 54.0884 21.9352 54.151 21.7869C54.2467 21.5604 54.3778 21.3548 54.5489 21.1768C54.6577 21.0635 54.7772 20.9631 54.9097 20.8775C55.3664 20.4342 57.2056 20.5434 58.3402 20.5675Z" fill="#FBFDFA"/>
<path d="M89.8285 27.4616C89.8162 27.4596 89.8038 27.4558 89.7915 27.4557C89.6733 27.4553 89.5551 27.4554 89.4369 27.4554C89.3283 27.4554 89.2197 27.4554 89.1111 27.4554C89.0429 27.4554 88.9747 27.4554 88.9065 27.4554C88.8266 27.4554 88.7466 27.456 88.6667 27.4551C88.6371 27.4547 88.6075 27.449 88.578 27.4487C88.5432 27.4484 88.5084 27.4529 88.4736 27.4526C88.4259 27.4523 88.3782 27.4483 88.3305 27.4479C88.2232 27.4471 88.1159 27.4475 88.0087 27.4475C87.8092 27.4475 87.6098 27.4475 87.4103 27.4475C87.3563 27.4475 87.3024 27.4476 87.2484 27.4476C87.1659 27.4476 87.0833 27.4484 87.0008 27.4473C86.9634 27.4468 86.9262 27.4412 86.8887 27.4406C86.8552 27.4401 86.8217 27.4435 86.7882 27.4451C86.7713 27.446 86.7545 27.4473 86.7377 27.4474C86.6617 27.4476 86.5856 27.4458 86.5096 27.448C86.449 27.4497 86.4061 27.4241 86.3731 27.3754C86.2051 27.1275 86.0367 26.8797 85.8684 26.6319C85.8416 26.5925 85.8122 26.5547 85.7879 26.5139C85.7561 26.4604 85.7754 26.4262 85.8377 26.424C85.8712 26.4228 85.9049 26.4286 85.9384 26.4287C85.972 26.4288 86.0056 26.4241 86.0391 26.4245C86.0948 26.4253 86.1504 26.4305 86.2062 26.4306C86.7621 26.4315 87.318 26.4311 87.8739 26.4324C88.4685 26.4338 89.0631 26.4365 89.6577 26.4393C89.7055 26.4395 89.7533 26.4443 89.8011 26.4459C89.8204 26.4465 89.8401 26.4459 89.859 26.4426C89.9326 26.4298 89.9937 26.4441 89.9954 26.5359C89.9954 26.5379 89.9984 26.5398 90 26.5418V26.6041C89.9979 26.6399 89.994 26.6756 89.994 26.7114C89.9934 26.9136 89.9941 27.1159 89.9936 27.3181C89.9934 27.3644 89.9846 27.4104 89.9427 27.4374C89.9213 27.4512 89.8928 27.4539 89.8674 27.4617H89.8285L89.8285 27.4616Z" fill="#FBFDFA"/>
<path d="M74.5508 21.1853C74.5508 21.3334 74.5499 21.4816 74.5512 21.6297C74.552 21.7323 74.5101 21.7445 74.4358 21.7475C74.37 21.7503 74.3038 21.7438 74.2378 21.7436C73.6363 21.7423 73.0349 21.7418 72.4335 21.7403C72.3129 21.74 72.1922 21.7355 72.0716 21.7347C71.9825 21.7341 71.8933 21.7376 71.8042 21.7373C71.3457 21.7362 70.8872 21.7349 70.4288 21.7327C70.3652 21.7324 70.3074 21.7815 70.3081 21.8508C70.3095 21.9881 70.3033 22.1254 70.3028 22.2628C70.3023 22.3792 70.3066 22.4957 70.3064 22.6121C70.3057 22.9538 70.3036 23.2953 70.3022 23.6369C70.3017 23.7746 70.3025 23.9122 70.3013 24.0499C70.3004 24.1572 70.2965 24.2644 70.2954 24.3716C70.295 24.4078 70.2986 24.444 70.3004 24.4802C70.3006 24.4828 70.3009 24.4854 70.3009 24.488C70.3009 24.5202 70.3053 24.5612 70.2727 24.5727C70.2579 24.5778 70.223 24.5464 70.2074 24.5243C70.071 24.3315 69.9372 24.1367 69.8019 23.943C69.6128 23.6721 69.423 23.4017 69.2338 23.1308C69.2007 23.0833 69.1644 23.0369 69.1389 22.9854C69.1201 22.9475 69.1095 22.9023 69.1079 22.8598C69.1048 22.7784 69.1123 22.6967 69.1124 22.615C69.1125 22.5285 69.1082 22.442 69.1076 22.3554C69.1072 22.3128 69.111 22.2701 69.1129 22.2274C69.1133 22.2184 69.1139 22.2093 69.1139 22.2002C69.1139 22.0941 69.1146 21.9879 69.1135 21.8816C69.1132 21.8561 69.1099 21.8299 69.1037 21.8051C69.0914 21.7551 69.0484 21.7259 68.9897 21.7257C68.7727 21.7253 68.5558 21.7257 68.3387 21.7249C68.2674 21.7246 68.1961 21.7203 68.1248 21.72C67.8055 21.7189 67.4861 21.7183 67.1668 21.7178C66.8511 21.7174 66.5354 21.7183 66.2197 21.7171C65.7849 21.7155 65.3501 21.7125 64.9153 21.71C64.8481 21.7097 64.8183 21.6804 64.8185 21.6133C64.8192 21.3704 64.82 21.1275 64.8214 20.8846C64.8217 20.8224 64.8246 20.7601 64.8254 20.6979C64.8263 20.6265 64.8511 20.601 64.9241 20.6C64.9859 20.5992 65.0478 20.5998 65.1096 20.5999C65.4682 20.5999 65.8268 20.5999 66.1854 20.5999C66.2901 20.5999 66.3949 20.5994 66.4997 20.6007C66.594 20.6019 66.6883 20.6072 66.7826 20.6074C67.3005 20.6081 67.8185 20.6077 68.3366 20.6078C68.4272 20.6078 68.5177 20.6077 68.6082 20.6081C69.1856 20.6106 69.7629 20.6133 70.3403 20.6157C70.4674 20.6162 70.5946 20.6153 70.7217 20.6165C70.7852 20.6171 70.8486 20.6229 70.9121 20.623C71.4171 20.6238 71.922 20.6237 72.427 20.6239C72.5045 20.6239 72.582 20.6236 72.6595 20.6239C73.249 20.6265 73.8386 20.629 74.4281 20.632C74.4498 20.6321 74.4719 20.6352 74.4932 20.6399C74.5294 20.648 74.5504 20.6785 74.5505 20.7216C74.5508 20.8761 74.5505 21.0307 74.5506 21.1854L74.5508 21.1853Z" fill="#FBFDFA"/>
<path d="M83.4684 21.1259C83.4684 21.1907 83.4686 21.2557 83.4684 21.3205C83.466 21.8425 83.4635 22.3646 83.4612 22.8866C83.4607 22.9861 83.4617 23.0856 83.4605 23.1851C83.4592 23.2911 83.454 23.3971 83.4539 23.5032C83.4531 24.0134 83.4535 24.5235 83.4534 25.0338C83.4534 25.1269 83.4534 25.2201 83.4529 25.3132C83.4506 25.6439 83.4479 25.9747 83.4456 26.3054C83.4451 26.3892 83.4685 26.4133 83.5532 26.4159C83.6517 26.4189 83.7503 26.4225 83.8488 26.4228C84.2822 26.4235 84.7157 26.4258 85.1491 26.421C85.2448 26.4199 85.3044 26.4575 85.3549 26.5306C85.5046 26.7471 85.6561 26.9625 85.8069 27.1783C85.8468 27.2355 85.8865 27.2927 85.926 27.3501C85.9318 27.3585 85.9365 27.3678 85.9407 27.3771C85.9543 27.4074 85.9475 27.4261 85.915 27.431C85.8718 27.4374 85.8276 27.4401 85.7839 27.4403C85.6385 27.4412 85.4932 27.4402 85.3478 27.4399C85.2433 27.4398 85.1387 27.4399 85.0341 27.4399C84.9645 27.4399 84.8949 27.4399 84.8253 27.4399C84.7453 27.4399 84.6653 27.4406 84.5854 27.4396C84.5545 27.4392 84.5237 27.4328 84.4929 27.4325C84.3934 27.4315 84.294 27.4321 84.1945 27.4321C83.9106 27.4321 83.6267 27.4321 83.3428 27.4321C83.2848 27.4321 83.2269 27.4321 83.1689 27.4321C83.0851 27.4321 83.0012 27.4328 82.9174 27.4318C82.8852 27.4314 82.8531 27.4257 82.8209 27.4251C82.7913 27.4246 82.7617 27.4276 82.732 27.4292C82.7178 27.43 82.7035 27.4318 82.6893 27.4318C82.6016 27.432 82.5138 27.4336 82.4262 27.4312C82.335 27.4289 82.3112 27.3952 82.3117 27.3174C82.3156 26.6875 82.3178 26.0577 82.3205 25.4278C82.3231 24.8395 82.3258 24.2512 82.3279 23.6629C82.3309 22.8864 82.3331 22.1098 82.3364 21.3333C82.3371 21.1386 82.3407 20.944 82.3432 20.7494C82.3439 20.6955 82.373 20.6658 82.4456 20.664C82.553 20.6613 82.6607 20.6677 82.7682 20.6687C82.8277 20.6692 82.8873 20.6657 82.9469 20.6655C82.9791 20.6653 83.0114 20.6695 83.0436 20.6696C83.155 20.6702 83.2664 20.6698 83.3778 20.6698C83.44 20.6698 83.4684 20.6968 83.4688 20.7595C83.4696 20.8816 83.469 21.0037 83.469 21.1258C83.4688 21.1258 83.4686 21.1258 83.4684 21.1258V21.1259Z" fill="#FBFDFA"/>
<path d="M81.4738 27.4243C81.3923 27.4243 81.3109 27.4243 81.2294 27.4243C81.161 27.4243 81.0925 27.4251 81.0241 27.4239C80.9893 27.4234 80.9546 27.4176 80.92 27.4172C80.8839 27.4168 80.8477 27.42 80.8116 27.4217C80.7987 27.4223 80.7857 27.424 80.7729 27.424C80.6851 27.4242 80.5974 27.423 80.5097 27.4244C80.4187 27.4259 80.3543 27.392 80.3011 27.3127C80.138 27.0691 79.9669 26.831 79.7993 26.5905C79.6782 26.4169 79.5576 26.2429 79.4366 26.0692C79.1658 25.6803 78.8949 25.2913 78.6238 24.9024C78.4262 24.6188 78.2281 24.3354 78.0306 24.0518C77.7864 23.7012 77.5429 23.3501 77.2981 22.9998C77.054 22.6506 76.8089 22.302 76.5638 21.9535C76.4867 21.8437 76.4082 21.7349 76.3304 21.6255C76.2891 21.5674 76.2854 21.53 76.3328 21.4659C76.5038 21.2345 76.6708 21 76.8393 20.7667C76.8416 20.7636 76.8429 20.7597 76.8452 20.7566C76.8892 20.6978 76.9235 20.6948 76.9671 20.7532C77.0313 20.8391 77.0906 20.9285 77.1528 21.0158C77.3722 21.3237 77.5925 21.6309 77.8113 21.9391C78.0138 22.2244 78.2146 22.5109 78.4168 22.7964C78.5936 23.046 78.7716 23.2949 78.9485 23.5444C79.1015 23.7602 79.254 23.9764 79.4067 24.1925C79.6026 24.4698 79.7979 24.7475 79.9945 25.0245C80.2523 25.3878 80.5113 25.7503 80.769 26.1136C80.9347 26.3473 81.0987 26.5823 81.2639 26.8164C81.386 26.9894 81.5086 27.1619 81.631 27.3346C81.6678 27.3866 81.6573 27.4099 81.594 27.4165C81.5541 27.4206 81.5142 27.4237 81.4743 27.4273C81.4742 27.4263 81.4741 27.4252 81.474 27.4242L81.4738 27.4243Z" fill="#FBFDFA"/>
<path d="M73.2977 27.3931C73.2243 27.3931 73.1599 27.3931 73.0955 27.3931C73.013 27.3931 72.9305 27.3931 72.8479 27.3931C72.7667 27.3931 72.6855 27.394 72.6042 27.3928C72.5656 27.3923 72.527 27.386 72.4883 27.3856C72.3864 27.385 72.2844 27.3874 72.1824 27.3858C72.1611 27.3855 72.1278 27.3785 72.1219 27.3651C72.1142 27.3478 72.1224 27.3163 72.1348 27.2986C72.2458 27.1416 72.3594 26.9863 72.4719 26.8302C72.6439 26.5914 72.8155 26.3523 72.9876 26.1136C73.1416 25.8998 73.2961 25.6864 73.4501 25.4726C73.61 25.2505 73.7695 25.028 73.9294 24.8058C74.109 24.5565 74.2886 24.3072 74.4683 24.058C74.6858 23.7564 74.9033 23.455 75.1204 23.1532C75.2071 23.0327 75.2921 22.911 75.3789 22.7906C75.5557 22.5456 75.7333 22.3012 75.9103 22.0564C75.9352 22.0219 75.9582 21.9859 75.9842 21.9523C76.0293 21.8942 76.0677 21.896 76.1095 21.9566C76.1476 22.0119 76.185 22.0677 76.2235 22.1227C76.3567 22.3132 76.49 22.5036 76.6236 22.6938C76.6585 22.7434 76.6601 22.784 76.6257 22.8324C76.5143 22.9892 76.403 23.1462 76.2912 23.3028C76.1548 23.4938 76.0171 23.6841 75.8812 23.8756C75.7617 24.044 75.6445 24.214 75.5253 24.3826C75.4045 24.5535 75.2826 24.7234 75.1614 24.8939C75.0658 25.0285 74.9708 25.1635 74.8751 25.2981C74.73 25.5021 74.5845 25.706 74.4391 25.9099C74.2645 26.1548 74.0892 26.3992 73.9152 26.6447C73.7735 26.8448 73.6335 27.0461 73.4926 27.2467C73.4741 27.2732 73.4556 27.2997 73.4356 27.325C73.3984 27.3724 73.3527 27.4031 73.2976 27.393L73.2977 27.3931Z" fill="#FBFDFA"/>
<path d="M63.014 21.8332C62.8166 21.8332 62.6193 21.8334 62.4219 21.8331C62.2938 21.8328 62.1656 21.832 62.0376 21.831C61.8948 21.8299 61.7521 21.8275 61.6093 21.8272C61.2612 21.8265 60.913 21.8275 60.565 21.8263C60.337 21.8254 60.109 21.8212 59.8811 21.8198C59.8271 21.8195 59.7948 21.7869 59.7679 21.7488C59.6732 21.6151 59.5812 21.4795 59.4871 21.3455C59.3331 21.1259 59.1781 20.9068 59.0236 20.6874C59.0199 20.6822 59.0169 20.6764 59.0134 20.6711C58.9743 20.6117 58.989 20.5805 59.0599 20.5752C59.0804 20.5736 59.1013 20.5764 59.1218 20.5764C59.4011 20.5766 59.6804 20.5765 59.9596 20.5766C60.1254 20.5766 60.2913 20.5762 60.4571 20.577C60.9413 20.5792 61.4254 20.5819 61.9097 20.5843C61.9849 20.5847 62.0602 20.5834 62.1355 20.5846C62.2477 20.5863 62.36 20.5905 62.4723 20.5915C62.5279 20.5919 62.5836 20.5854 62.6391 20.5856C62.7155 20.5859 62.792 20.5913 62.8684 20.5915C63.1308 20.5924 63.3931 20.592 63.6555 20.5922C63.6698 20.5922 63.6845 20.5913 63.6983 20.5941C63.7566 20.606 63.7762 20.6344 63.7761 20.7128C63.7759 20.7711 63.7701 20.8295 63.77 20.8878C63.7693 21.1683 63.7697 21.4489 63.7697 21.7295C63.7697 21.8067 63.7414 21.835 63.665 21.835C63.448 21.835 63.2311 21.835 63.0142 21.835V21.8332L63.014 21.8332Z" fill="#FBFDFA"/>
<path d="M69.0913 26.9154C69.0913 26.8117 69.0907 26.708 69.0916 26.6043C69.0919 26.5668 69.0974 26.5294 69.0972 26.4919C69.0971 26.4467 69.0917 26.4015 69.0918 26.3563C69.0939 25.8646 69.0966 25.3728 69.099 24.881C69.0995 24.7788 69.0989 24.6767 69.0996 24.5745C69.1017 24.2903 69.1036 24.0059 69.1073 23.7217C69.1076 23.704 69.1223 23.6866 69.1303 23.6689C69.1466 23.6764 69.1688 23.6794 69.1784 23.6919C69.2244 23.7524 69.2674 23.8153 69.311 23.8777C69.5165 24.1715 69.7219 24.4653 69.9274 24.759C70.0361 24.9145 70.1446 25.0701 70.2535 25.2255C70.281 25.2647 70.2952 25.3073 70.2948 25.3558C70.2938 25.4987 70.2953 25.6415 70.2941 25.7844C70.2931 25.9073 70.2878 26.0301 70.2874 26.1529C70.2864 26.5278 70.2869 26.9026 70.2867 27.2775C70.2867 27.3582 70.2465 27.3921 70.1669 27.3789C70.1568 27.3772 70.1462 27.3776 70.1358 27.3776C70.0195 27.3776 69.9031 27.3776 69.7868 27.3776C69.6757 27.3776 69.5647 27.3776 69.4536 27.3776C69.3764 27.3776 69.299 27.3783 69.2218 27.3772C69.1962 27.3769 69.1703 27.3737 69.1453 27.3681C69.1094 27.3601 69.0909 27.3322 69.0907 27.2896C69.0904 27.165 69.0907 27.0402 69.0907 26.9156H69.0913V26.9154Z" fill="#FBFDFA"/>
<rect width="48" height="48" fill="white"/>
<path d="M35.9412 28.1256V27.1354C35.9412 26.5618 36.0355 26.0863 36.2241 25.7091C36.4127 25.3241 36.6838 25.0097 37.0374 24.7661C37.3989 24.5147 37.839 24.3103 38.3576 24.1532L39.1474 23.9056C39.5796 23.772 39.9097 23.5795 40.1376 23.328C40.3733 23.0766 40.4912 22.7622 40.4912 22.385V22.3379C40.4912 21.9449 40.3576 21.6345 40.0904 21.4066C39.8232 21.1709 39.4578 21.053 38.9942 21.053C38.5384 21.053 38.169 21.1788 37.8861 21.4302C37.6111 21.6738 37.4736 22.0275 37.4736 22.4911V22.7033H35.9647V22.5147C35.9647 21.9174 36.0983 21.4106 36.3655 20.9941C36.6327 20.5776 36.9942 20.2593 37.45 20.0393C37.9136 19.8192 38.4284 19.7092 38.9942 19.7092C39.56 19.7092 40.0708 19.8192 40.5266 20.0393C40.9823 20.2515 41.3399 20.554 41.5992 20.9469C41.8664 21.332 42 21.7878 42 22.3143V22.4322C42 22.9587 41.89 23.4066 41.67 23.776C41.4578 24.1374 41.167 24.4361 40.7977 24.6718C40.4283 24.8997 40.0079 25.0883 39.5364 25.2376L38.782 25.4734C38.279 25.6305 37.9372 25.8074 37.7565 26.0038C37.5757 26.1924 37.4853 26.436 37.4853 26.7347V26.7818H41.9293V28.1256H35.9412Z" fill="black"/>
<path fill-rule="evenodd" clip-rule="evenodd" d="M32.3088 28.2907C31.7273 28.2907 31.2126 28.1689 30.7647 27.9253C30.3246 27.6738 29.9788 27.3241 29.7274 26.8762C29.4837 26.4204 29.3619 25.8861 29.3619 25.2731V25.1316C29.3619 24.5187 29.4837 23.9882 29.7274 23.5403C29.971 23.0845 30.3128 22.7348 30.7529 22.4912C31.193 22.2397 31.7037 22.114 32.2853 22.114C32.8589 22.114 33.3579 22.2437 33.7823 22.503C34.2067 22.7545 34.5367 23.1081 34.7725 23.5639C35.0082 24.0118 35.1261 24.5344 35.1261 25.1316V25.6385H30.8708C30.8865 26.0393 31.0358 26.3654 31.3187 26.6169C31.6016 26.8684 31.9474 26.9941 32.356 26.9941C32.7725 26.9941 33.079 26.9037 33.2754 26.723C33.4719 26.5422 33.6212 26.3418 33.7234 26.1218L34.9375 26.7583C34.8275 26.9627 34.6664 27.1866 34.4542 27.4302C34.2499 27.666 33.9748 27.8703 33.6291 28.0432C33.2833 28.2082 32.8432 28.2907 32.3088 28.2907ZM33.6173 24.5305H30.8825C30.9376 24.1926 31.0829 23.9215 31.3187 23.7171C31.5544 23.5128 31.8727 23.4107 32.2735 23.4107C32.6585 23.4107 32.969 23.5128 33.2047 23.7171C33.4483 23.9215 33.5858 24.1926 33.6173 24.5305Z" fill="black"/>
<path d="M26.0682 28.2907C25.306 28.2907 24.6812 28.1257 24.194 27.7957C23.7068 27.4656 23.4121 26.9941 23.3099 26.3811L24.6773 26.0275C24.7559 26.4361 24.9209 26.719 25.1724 26.8762C25.4317 27.0334 25.7303 27.112 26.0682 27.112C26.414 27.112 26.6694 27.053 26.8344 26.9352C26.9995 26.8094 27.082 26.6562 27.082 26.4754C27.082 26.2947 27.0034 26.1572 26.8462 26.0629C26.6891 25.9607 26.4376 25.8782 26.0918 25.8153L25.7618 25.7564C25.3531 25.6778 24.9799 25.5717 24.6419 25.4381C24.304 25.2967 24.0329 25.1041 23.8286 24.8605C23.6243 24.6169 23.5221 24.3026 23.5221 23.9175C23.5221 23.336 23.7343 22.892 24.1586 22.5855C24.583 22.2712 25.1409 22.114 25.8325 22.114C26.4847 22.114 27.027 22.2594 27.4592 22.5502C27.8914 22.8409 28.1743 23.2221 28.3079 23.6936L26.9287 24.1179C26.8659 23.8193 26.7362 23.6071 26.5397 23.4814C26.3511 23.3556 26.1154 23.2928 25.8325 23.2928C25.5496 23.2928 25.3335 23.3439 25.1842 23.446C25.0349 23.5403 24.9602 23.6739 24.9602 23.8468C24.9602 24.0354 25.0388 24.1768 25.196 24.2712C25.3531 24.3576 25.5653 24.4244 25.8325 24.4715L26.1625 24.5305C26.6026 24.6091 26.9995 24.7152 27.3531 24.8487C27.7146 24.9745 27.9975 25.1592 28.2018 25.4028C28.414 25.6385 28.5201 25.9607 28.5201 26.3693C28.5201 26.9823 28.2961 27.4577 27.8482 27.7957C27.4081 28.1257 26.8148 28.2907 26.0682 28.2907Z" fill="black"/>
<path fill-rule="evenodd" clip-rule="evenodd" d="M19.3811 28.2907C18.7995 28.2907 18.277 28.1729 17.8133 27.9371C17.3497 27.7013 16.9842 27.3595 16.7171 26.9116C16.4499 26.4636 16.3163 25.9253 16.3163 25.2967V25.1081C16.3163 24.4794 16.4499 23.9411 16.7171 23.4932C16.9842 23.0452 17.3497 22.7034 17.8133 22.4676C18.277 22.2319 18.7995 22.114 19.3811 22.114C19.9626 22.114 20.4852 22.2319 20.9488 22.4676C21.4125 22.7034 21.7779 23.0452 22.0451 23.4932C22.3123 23.9411 22.4459 24.4794 22.4459 25.1081V25.2967C22.4459 25.9253 22.3123 26.4636 22.0451 26.9116C21.7779 27.3595 21.4125 27.7013 20.9488 27.9371C20.4852 28.1729 19.9626 28.2907 19.3811 28.2907ZM20.5127 26.5344C20.2141 26.8251 19.8369 26.9705 19.3811 26.9705C18.9253 26.9705 18.5481 26.8251 18.2495 26.5344C17.9508 26.2358 17.8015 25.8114 17.8015 25.2613V25.1434C17.8015 24.5933 17.9508 24.1729 18.2495 23.8822C18.5481 23.5835 18.9253 23.4342 19.3811 23.4342C19.8447 23.4342 20.2219 23.5835 20.5127 23.8822C20.8113 24.1729 20.9606 24.5933 20.9606 25.1434V25.2613C20.9606 25.8114 20.8113 26.2358 20.5127 26.5344Z" fill="black"/>
<path d="M13.645 28.1256V19.8743H15.1303V28.1256H13.645Z" fill="black"/>
<path d="M9.32411 28.2906C8.30252 28.2906 7.4931 28.0077 6.89586 27.4419C6.29862 26.8682 6 26.051 6 24.9901V23.0098C6 21.9489 6.29862 21.1355 6.89586 20.5697C7.4931 19.9961 8.30252 19.7092 9.32411 19.7092C10.3378 19.7092 11.1198 19.9882 11.6698 20.5462C12.2278 21.0962 12.5068 21.8546 12.5068 22.8212V22.8919H10.9744V22.774C10.9744 22.2868 10.8369 21.886 10.5618 21.5717C10.2946 21.2573 9.88206 21.1002 9.32411 21.1002C8.77402 21.1002 8.34181 21.2691 8.02747 21.607C7.71314 21.9449 7.55597 22.4047 7.55597 22.9862V25.0137C7.55597 25.5873 7.71314 26.047 8.02747 26.3928C8.34181 26.7307 8.77402 26.8997 9.32411 26.8997C9.88206 26.8997 10.2946 26.7425 10.5618 26.4282C10.8369 26.106 10.9744 25.7052 10.9744 25.2258V25.0137H12.5068V25.1787C12.5068 26.1453 12.2278 26.9075 11.6698 27.4655C11.1198 28.0156 10.3378 28.2906 9.32411 28.2906Z" fill="black"/>
</g>
<defs>
<clipPath id="clip0_24_3500">
<rect width="96" height="48" rx="4" fill="white"/>
</clipPath>
</defs>
</svg>
